<svg xmlns="http://www.w3.org/2000/svg" version="1.0" width="321.000000" height="258.000000" preserveAspectRatio="xMidYMid meet" style=""><rect id="backgroundrect" width="100%" height="100%" x="0" y="0" fill="none" stroke="none"/>


<g class="currentLayer" style=""><title>Layer 1</title>
<path d="M109.26344233249785,24.325802944985128 c-32.20000047981739,1.2000000178813934 -45.500000678002834,3.7000000551342964 -56.800000846385956,10.900000162422657 c-16.20000024139881,10.30000015348196 -25.200000375509262,26.100000388920307 -27.80000041425228,48.90000072866678 c-1.4000000208616257,11.900000177323818 0.20000000298023224,48.70000072568655 2.7000000402331352,63.10000094026327 c5.200000077486038,30.4000004529953 18.80000028014183,55.800000831484795 38.10000056773424,71.10000105947256 c21.300000317394733,16.900000251829624 41.30000061541796,22.500000335276127 76.70000114291906,21.600000321865082 c21.600000321865082,-0.5000000074505806 31.900000475347042,-2.500000037252903 46.000000685453415,-9.100000135600567 c24.50000036507845,-11.300000168383121 44.10000065714121,-33.00000049173832 54.000000804662704,-59.70000088959932 l1.8000000268220901,-4.6000000685453415 l6.600000098347664,-1.2000000178813934 c23.100000344216824,-4.300000064074993 43.50000064820051,-22.100000329315662 50.20000074803829,-43.900000654160976 c3.300000049173832,-10.600000157952309 4.400000065565109,-22.90000034123659 3.200000047683716,-34.1000005081296 c-3.9000000581145287,-34.1000005081296 -25.50000037997961,-55.000000819563866 -62.70000093430281,-60.60000090301037 c-20.000000298023224,-3.0000000447034836 -83.90000125020742,-4.200000062584877 -132.00000196695328,-2.400000035762787 zm108.50000161677599,22.90000034123659 c18.80000028014183,1.1000000163912773 24.70000036805868,2.1000000312924385 34.50000051409006,5.600000083446503 c14.900000222027302,5.300000078976154 24.800000369548798,15.600000232458115 27.900000415742397,29.300000436604023 c3.1000000461935997,13.800000205636024 1.600000023841858,28.90000043064356 -4.100000061094761,39.300000585615635 c-3.8000000566244125,6.900000102818012 -13.000000193715096,15.300000227987766 -21.000000312924385,19.10000028461218 c-6.100000090897083,2.9000000432133675 -7.900000117719173,3.200000047683716 -18.0000002682209,3.500000052154064 l-11.300000168383121,0.4000000059604645 l-1.0000000149011612,4.200000062584877 c-4.300000064074993,16.800000250339508 -8.900000132620335,27.400000408291817 -16.50000024586916,38.10000056773424 c-7.700000114738941,10.800000160932541 -19.400000289082527,20.200000301003456 -31.40000046789646,25.00000037252903 c-12.600000187754631,5.200000077486038 -34.00000050663948,7.400000110268593 -52.80000078678131,5.600000083446503 c-14.300000213086605,-1.3000000193715096 -21.700000323355198,-3.200000047683716 -32.00000047683716,-8.200000122189522 c-23.800000354647636,-11.400000169873238 -37.60000056028366,-33.70000050216913 -42.900000639259815,-69.40000103414059 c-2.0000000298023224,-13.600000202655792 -3.0000000447034836,-51.20000076293945 -1.5000000223517418,-58.900000877678394 c1.4000000208616257,-7.600000113248825 5.4000000804662704,-16.20000024139881 9.400000140070915,-20.40000030398369 c3.7000000551342964,-3.9000000581145287 12.200000181794167,-8.400000125169754 18.700000278651714,-10.000000149011612 c5.200000077486038,-1.2000000178813934 21.500000320374966,-3.1000000461935997 31.000000461935997,-3.500000052154064 c17.100000254809856,-0.800000011920929 96.40000143647194,-0.6000000089406967 111.00000165402889,0.30000000447034836 z" id="svg_2" fill="#845ef7" fill-opacity="1" stroke="#484848" stroke-opacity="1" filter="" stroke-dasharray="none" opacity="1" class=""/>
<path d="M227.96344410126568,74.82580369749377 c-2.1000000312924385,1.5000000223517418 -2.2000000327825546,2.0000000298023224 -2.2000000327825546,21.200000315904617 c0,10.800000160932541 0.4000000059604645,20.200000301003456 0.800000011920929,20.800000309944153 c1.600000023841858,2.500000037252903 5.500000081956387,3.6000000536441803 10.100000150501728,2.9000000432133675 c13.800000205636024,-2.1000000312924385 20.10000029951334,-9.300000138580799 20.10000029951334,-23.000000342726707 c0,-8.400000125169754 -2.1000000312924385,-13.700000204145908 -7.300000108778477,-18.200000271201134 c-5.800000086426735,-5.100000075995922 -16.800000250339508,-7.000000104308128 -21.500000320374966,-3.7000000551342964 z" id="svg_3" fill="#845ef7" fill-opacity="1" stroke="#484848" stroke-opacity="1" filter="" stroke-dasharray="none" opacity="1" class=""/>
<path d="M104.96344226842285,76.2258037183554 c-10.800000160932541,2.3000000342726707 -21.1000003144145,11.10000016540289 -25.300000376999378,21.800000324845314 c-3.300000049173832,8.200000122189522 -3.1000000461935997,20.200000301003456 0.30000000447034836,29.90000044554472 c6.400000095367432,17.900000266730785 23.500000350177288,35.30000052601099 50.100000746548176,50.80000075697899 c4.000000059604645,2.3000000342726707 5.600000083446503,2.7000000402331352 10.200000151991844,2.3000000342726707 c4.700000070035458,-0.4000000059604645 6.800000101327896,-1.5000000223517418 18.500000275671482,-9.200000137090683 c20.10000029951334,-13.40000019967556 33.30000049620867,-27.700000412762165 39.20000058412552,-42.400000631809235 c1.8000000268220901,-4.700000070035458 2.2000000327825546,-7.600000113248825 2.3000000342726707,-16.700000248849392 c0,-9.900000147521496 -0.30000000447034836,-11.60000017285347 -2.7000000402331352,-16.800000250339508 c-5.800000086426735,-12.400000184774399 -17.600000262260437,-20.000000298023224 -31.300000466406345,-20.10000029951334 c-8.900000132620335,0 -16.00000023841858,3.1000000461935997 -22.70000033825636,9.900000147521496 l-4.800000071525574,4.800000071525574 l-4.000000059604645,-4.6000000685453415 c-7.1000001057982445,-8.00000011920929 -19.10000028461218,-11.900000177323818 -29.800000444054604,-9.700000144541264 z" id="svg_4" fill="#f7931a" fill-opacity="1" stroke="#e98a8a" stroke-opacity="1" filter="" stroke-dasharray="none" opacity="1" class=""/>
</g><defs><filter id="f157" xmlns:inkscape="http://www.inkscape.org/namespaces/inkscape" inkscape:menu-tooltip="Make the lightest parts of the object progressively transparent" inkscape:menu="Transparency utilities" inkscape:label="Light eraser" height="1" width="1" y="0" x="0" color-interpolation-filters="sRGB">
            <feColorMatrix result="result14" type="luminanceToAlpha" in="SourceGraphic"/>
            <feComposite in="SourceGraphic" in2="result14" result="fbSourceGraphic" operator="out"/>
            <feBlend mode="normal" in2="fbSourceGraphic" result="result15"/>
        </filter></defs></svg>